<?xml version="1.0" encoding="UTF-8"?>
<!DOCTYPE svg PUBLIC "-//W3C//DTD SVG 1.1//EN" "http://www.w3.org/Graphics/SVG/1.1/DTD/svg11.dtd">
<svg xmlns="http://www.w3.org/2000/svg" version="1.1" width="512px" height="512px" style="shape-rendering:geometricPrecision; text-rendering:geometricPrecision; image-rendering:optimizeQuality; fill-rule:evenodd; clip-rule:evenodd" xmlns:xlink="http://www.w3.org/1999/xlink">
<g><path style="opacity:0.982" fill="#40bc7f" d="M 150.5,8.5 C 172.503,8.33337 194.503,8.50004 216.5,9C 203.518,14.9359 190.518,20.7692 177.5,26.5C 177.611,25.8826 177.944,25.3826 178.5,25C 168.939,19.7257 159.606,14.2257 150.5,8.5 Z"/></g>
<g><path style="opacity:0.981" fill="#2db781" d="M 402.5,104.5 C 403.263,103.732 404.263,103.232 405.5,103C 352.998,72.6365 300.664,42.1365 248.5,11.5C 251.299,8.86102 254.632,8.02769 258.5,9C 328.316,40.4094 397.983,72.076 467.5,104C 445.836,104.5 424.169,104.667 402.5,104.5 Z"/></g>
<g><path style="opacity:0.998" fill="#1db383" d="M 294.5,9.5 C 309.496,8.83341 324.663,8.50007 340,8.5C 356.551,8.36259 373.051,8.86259 389.5,10C 403.934,17.1995 409.934,28.8662 407.5,45C 407.167,49.8333 406.833,54.6667 406.5,59.5C 369.145,42.8214 331.812,26.1547 294.5,9.5 Z"/></g>
<g><path style="opacity:0.984" fill="#4cbf7d" d="M 150.5,8.5 C 159.606,14.2257 168.939,19.7257 178.5,25C 177.944,25.3826 177.611,25.8826 177.5,26.5C 165.006,32.5536 152.339,38.2203 139.5,43.5C 128.998,36.412 117.998,30.0786 106.5,24.5C 109.653,17.8484 114.653,13.0151 121.5,10C 131.1,8.60908 140.767,8.10908 150.5,8.5 Z"/></g>
<g><path style="opacity:0.993" fill="#36b980" d="M 248.5,11.5 C 300.664,42.1365 352.998,72.6365 405.5,103C 404.263,103.232 403.263,103.732 402.5,104.5C 384.833,104.5 367.167,104.5 349.5,104.5C 345.72,103.621 342.053,102.121 338.5,100C 296.608,75.5571 254.608,51.3904 212.5,27.5C 224.196,21.6557 236.196,16.3223 248.5,11.5 Z"/></g>
<g><path style="opacity:0.984" fill="#41bc7e" d="M 212.5,27.5 C 254.608,51.3904 296.608,75.5571 338.5,100C 342.053,102.121 345.72,103.621 349.5,104.5C 336.5,104.5 323.5,104.5 310.5,104.5C 311.263,103.732 312.263,103.232 313.5,103C 274.275,80.2234 234.941,57.7234 195.5,35.5C 200.918,32.4635 206.584,29.7968 212.5,27.5 Z"/></g>
<g><path style="opacity:0.989" fill="#47bd7e" d="M 195.5,35.5 C 234.941,57.7234 274.275,80.2234 313.5,103C 312.263,103.232 311.263,103.732 310.5,104.5C 303.833,104.5 297.167,104.5 290.5,104.5C 288.369,103.686 286.036,103.186 283.5,103C 249.759,82.934 215.759,63.2673 181.5,44C 180.748,43.3292 180.414,42.4959 180.5,41.5C 185.394,39.2194 190.394,37.2194 195.5,35.5 Z"/></g>
<g><path style="opacity:0.947" fill="#58c27b" d="M 106.5,24.5 C 117.998,30.0786 128.998,36.412 139.5,43.5C 128.043,49.058 116.376,54.3914 104.5,59.5C 103.335,49.8505 103.168,40.1839 104,30.5C 104.24,28.1484 105.073,26.1484 106.5,24.5 Z"/></g>
<g><path style="opacity:0.994" fill="#4dbf7d" d="M 180.5,41.5 C 180.414,42.4959 180.748,43.3292 181.5,44C 215.759,63.2673 249.759,82.934 283.5,103C 286.036,103.186 288.369,103.686 290.5,104.5C 279.167,104.5 267.833,104.5 256.5,104.5C 254.369,103.686 252.036,103.186 249.5,103C 221.33,86.414 192.997,70.0807 164.5,54C 162.937,53.2411 161.937,52.0744 161.5,50.5C 167.648,47.2611 173.981,44.2611 180.5,41.5 Z"/></g>
<g><path style="opacity:0.986" fill="#58c27b" d="M 161.5,50.5 C 161.937,52.0744 162.937,53.2411 164.5,54C 192.997,70.0807 221.33,86.414 249.5,103C 252.036,103.186 254.369,103.686 256.5,104.5C 238.5,104.5 220.5,104.5 202.5,104.5C 199.023,103.677 195.356,103.177 191.5,103C 169.939,90.7257 148.606,78.2257 127.5,65.5C 138.828,60.5012 150.162,55.5012 161.5,50.5 Z"/></g>
<g><path style="opacity:0.965" fill="#60c47a" d="M 127.5,65.5 C 148.606,78.2257 169.939,90.7257 191.5,103C 195.356,103.177 199.023,103.677 202.5,104.5C 189.5,104.5 176.5,104.5 163.5,104.5C 146.115,93.8032 128.448,83.4699 110.5,73.5C 115.981,70.5944 121.648,67.9278 127.5,65.5 Z"/></g>
<g><path style="opacity:0.965" fill="#68c679" d="M 110.5,73.5 C 128.448,83.4699 146.115,93.8032 163.5,104.5C 139.5,104.5 115.5,104.5 91.5,104.5C 93.631,103.686 95.9644,103.186 98.5,103C 91.6628,98.7471 84.6628,94.7471 77.5,91C 76.7476,90.3292 76.4142,89.4959 76.5,88.5C 87.8283,83.5012 99.1616,78.5012 110.5,73.5 Z"/></g>
<g><path style="opacity:0.933" fill="#74c977" d="M 76.5,88.5 C 76.4142,89.4959 76.7476,90.3292 77.5,91C 84.6628,94.7471 91.6628,98.7471 98.5,103C 95.9644,103.186 93.631,103.686 91.5,104.5C 75.4965,104.667 59.4965,104.5 43.5,104C 54.2542,98.2893 65.2542,93.1227 76.5,88.5 Z"/></g>
<g><path style="opacity:0.951" fill="#76c977" d="M 128.5,119.5 C 138.385,126.774 149.052,132.441 160.5,136.5C 130.498,136.667 100.498,136.5 70.5,136C 70,135.5 69.5,135 69,134.5C 68.5007,129.511 68.3341,124.511 68.5,119.5C 88.5,119.5 108.5,119.5 128.5,119.5 Z"/></g>
<g><path style="opacity:0.96" fill="#68c679" d="M 128.5,119.5 C 151.167,119.5 173.833,119.5 196.5,119.5C 195.737,120.268 194.737,120.768 193.5,121C 201.5,125.667 209.5,130.333 217.5,135C 216.263,135.232 215.263,135.732 214.5,136.5C 196.5,136.5 178.5,136.5 160.5,136.5C 149.052,132.441 138.385,126.774 128.5,119.5 Z"/></g>
<g><path style="opacity:0.973" fill="#5ac27b" d="M 196.5,119.5 C 222.833,119.5 249.167,119.5 275.5,119.5C 275.389,120.117 275.056,120.617 274.5,121C 283.395,125.941 292.062,131.108 300.5,136.5C 271.833,136.5 243.167,136.5 214.5,136.5C 215.263,135.732 216.263,135.232 217.5,135C 209.5,130.333 201.5,125.667 193.5,121C 194.737,120.768 195.737,120.268 196.5,119.5 Z"/></g>
<g><path style="opacity:0.957" fill="#4abe7d" d="M 275.5,119.5 C 297.833,119.5 320.167,119.5 342.5,119.5C 351.833,125.167 361.167,130.833 370.5,136.5C 347.167,136.5 323.833,136.5 300.5,136.5C 292.062,131.108 283.395,125.941 274.5,121C 275.056,120.617 275.389,120.117 275.5,119.5 Z"/></g>
<g><path style="opacity:0.979" fill="#3bba7f" d="M 342.5,119.5 C 375.833,119.5 409.167,119.5 442.5,119.5C 442.666,124.511 442.499,129.511 442,134.5C 441.5,135 441,135.5 440.5,136C 417.169,136.5 393.836,136.667 370.5,136.5C 361.167,130.833 351.833,125.167 342.5,119.5 Z"/></g>
<g><path style="opacity:0.973" fill="#80cb76" d="M 143.5,182.5 C 128.691,173.592 113.691,164.926 98.5,156.5C 97.8182,157.243 97.1515,157.909 96.5,158.5C 96.5,156.167 96.5,153.833 96.5,151.5C 112.167,151.5 127.833,151.5 143.5,151.5C 143.5,161.833 143.5,172.167 143.5,182.5 Z"/></g>
<g><path style="opacity:0.884" fill="#58c27b" d="M 294.5,152.5 C 304.319,151.506 314.319,151.173 324.5,151.5C 324.831,159.86 324.498,168.193 323.5,176.5C 315.541,166.365 305.874,158.365 294.5,152.5 Z"/></g>
<g><path style="opacity:0.979" fill="#4cbe7d" d="M 414.5,201.5 C 414.159,198.438 412.492,196.272 409.5,195C 395.607,186.889 381.607,179.056 367.5,171.5C 367.5,164.833 367.5,158.167 367.5,151.5C 383.167,151.5 398.833,151.5 414.5,151.5C 414.5,168.167 414.5,184.833 414.5,201.5 Z"/></g>
<g><path style="opacity:0.981" fill="#6cc779" d="M 244.5,152.5 C 290.226,150.07 318.392,171.07 329,215.5C 333.604,254.804 318.437,283.304 283.5,301C 245.309,312.718 215.475,301.884 194,268.5C 184.551,250.149 181.884,230.816 186,210.5C 194.124,179.542 213.624,160.208 244.5,152.5 Z"/></g>
<g><path style="opacity:0.904" fill="#71c877" d="M 186.5,151.5 C 196.506,151.334 206.506,151.5 216.5,152C 205.27,158.287 195.603,166.453 187.5,176.5C 186.502,168.193 186.169,159.86 186.5,151.5 Z"/></g>
<g><path style="opacity:0.983" fill="#8ace75" d="M 143.5,182.5 C 143.5,192.833 143.5,203.167 143.5,213.5C 142.778,213.918 142.278,214.584 142,215.5C 126.86,206.683 111.693,198.017 96.5,189.5C 96.5,179.167 96.5,168.833 96.5,158.5C 97.1515,157.909 97.8182,157.243 98.5,156.5C 113.691,164.926 128.691,173.592 143.5,182.5 Z"/></g>
<g><path style="opacity:1" fill="#fcfefc" d="M 218.5,175.5 C 224.537,175.171 230.537,175.504 236.5,176.5C 243.626,187.917 250.626,199.417 257.5,211C 264.492,211.5 271.492,211.666 278.5,211.5C 278.5,199.5 278.5,187.5 278.5,175.5C 284.167,175.5 289.833,175.5 295.5,175.5C 295.5,187.5 295.5,199.5 295.5,211.5C 298.833,211.5 302.167,211.5 305.5,211.5C 306.833,215.167 306.833,218.833 305.5,222.5C 302.167,222.5 298.833,222.5 295.5,222.5C 295.194,225.385 295.527,228.052 296.5,230.5C 299.833,230.5 303.167,230.5 306.5,230.5C 306.5,234.167 306.5,237.833 306.5,241.5C 302.833,241.5 299.167,241.5 295.5,241.5C 295.5,254.167 295.5,266.833 295.5,279.5C 290.125,279.828 284.792,279.495 279.5,278.5C 272.687,266.739 265.687,255.072 258.5,243.5C 251.197,242.503 243.863,242.169 236.5,242.5C 236.5,254.833 236.5,267.167 236.5,279.5C 230.5,279.5 224.5,279.5 218.5,279.5C 218.5,266.833 218.5,254.167 218.5,241.5C 214.833,241.5 211.167,241.5 207.5,241.5C 207.5,237.833 207.5,234.167 207.5,230.5C 210.833,230.5 214.167,230.5 217.5,230.5C 218.473,228.052 218.806,225.385 218.5,222.5C 214.833,222.5 211.167,222.5 207.5,222.5C 207.185,218.629 207.518,214.962 208.5,211.5C 211.833,211.5 215.167,211.5 218.5,211.5C 218.5,199.5 218.5,187.5 218.5,175.5 Z"/></g>
<g><path style="opacity:1" fill="#91d59b" d="M 218.5,175.5 C 218.5,187.5 218.5,199.5 218.5,211.5C 215.167,211.5 211.833,211.5 208.5,211.5C 211.287,210.523 214.287,210.19 217.5,210.5C 217.172,198.655 217.505,186.988 218.5,175.5 Z"/></g>
<g><path style="opacity:1" fill="#91d59b" d="M 295.5,175.5 C 296.495,186.988 296.828,198.655 296.5,210.5C 299.713,210.19 302.713,210.523 305.5,211.5C 302.167,211.5 298.833,211.5 295.5,211.5C 295.5,199.5 295.5,187.5 295.5,175.5 Z"/></g>
<g><path style="opacity:0.985" fill="#58c27b" d="M 367.5,171.5 C 381.607,179.056 395.607,186.889 409.5,195C 412.492,196.272 414.159,198.438 414.5,201.5C 414.5,211.5 414.5,221.5 414.5,231.5C 398.967,222.567 383.3,213.901 367.5,205.5C 367.5,194.167 367.5,182.833 367.5,171.5 Z"/></g>
<g><path style="opacity:0.984" fill="#92d073" d="M 96.5,189.5 C 111.693,198.017 126.86,206.683 142,215.5C 142.278,214.584 142.778,213.918 143.5,213.5C 143.5,219.833 143.5,226.167 143.5,232.5C 129.393,224.944 115.393,217.111 101.5,209C 98.887,207.893 97.2203,206.06 96.5,203.5C 96.5,198.833 96.5,194.167 96.5,189.5 Z"/></g>
<g><path style="opacity:0.981" fill="#98d273" d="M 96.5,203.5 C 97.2203,206.06 98.887,207.893 101.5,209C 115.393,217.111 129.393,224.944 143.5,232.5C 143.5,239.167 143.5,245.833 143.5,252.5C 127.67,243.753 112.004,234.753 96.5,225.5C 96.5,218.167 96.5,210.833 96.5,203.5 Z"/></g>
<g><path style="opacity:1" fill="#79cc85" d="M 236.5,205.5 C 238.539,206.911 239.539,208.911 239.5,211.5C 238.5,211.5 237.5,211.5 236.5,211.5C 236.5,209.5 236.5,207.5 236.5,205.5 Z"/></g>
<g><path style="opacity:0.981" fill="#65c57a" d="M 367.5,205.5 C 383.3,213.901 398.967,222.567 414.5,231.5C 414.5,243.5 414.5,255.5 414.5,267.5C 399.306,259.669 384.306,251.335 369.5,242.5C 368.818,243.243 368.151,243.909 367.5,244.5C 367.5,231.5 367.5,218.5 367.5,205.5 Z"/></g>
<g><path style="opacity:1" fill="#97d7a0" d="M 207.5,222.5 C 211.167,222.5 214.833,222.5 218.5,222.5C 218.806,225.385 218.473,228.052 217.5,230.5C 217.5,228.167 217.5,225.833 217.5,223.5C 213.958,223.813 210.625,223.479 207.5,222.5 Z"/></g>
<g><path style="opacity:1" fill="#97d7a0" d="M 305.5,222.5 C 302.713,223.477 299.713,223.81 296.5,223.5C 296.5,225.833 296.5,228.167 296.5,230.5C 295.527,228.052 295.194,225.385 295.5,222.5C 298.833,222.5 302.167,222.5 305.5,222.5 Z"/></g>
<g><path style="opacity:1" fill="#75ca81" d="M 236.5,222.5 C 240.226,222.177 243.893,222.511 247.5,223.5C 248.5,225.5 249.5,227.5 250.5,229.5C 245.88,230.493 241.214,230.827 236.5,230.5C 236.5,227.833 236.5,225.167 236.5,222.5 Z"/></g>
<g><path style="opacity:1" fill="#74ca80" d="M 264.5,222.5 C 269.167,222.5 273.833,222.5 278.5,222.5C 278.5,225.167 278.5,227.833 278.5,230.5C 274.818,230.665 271.152,230.499 267.5,230C 266.358,227.55 265.358,225.05 264.5,222.5 Z"/></g>
<g><path style="opacity:0.991" fill="#9fd372" d="M 96.5,225.5 C 112.004,234.753 127.67,243.753 143.5,252.5C 143.5,258.167 143.5,263.833 143.5,269.5C 129.194,261.345 114.861,253.179 100.5,245C 98.5318,243.539 97.1984,241.705 96.5,239.5C 96.5,234.833 96.5,230.167 96.5,225.5 Z"/></g>
<g><path style="opacity:0.978" fill="#a5d571" d="M 96.5,239.5 C 97.1984,241.705 98.5318,243.539 100.5,245C 114.861,253.179 129.194,261.345 143.5,269.5C 143.5,275.167 143.5,280.833 143.5,286.5C 128.721,278.227 114.054,269.727 99.5,261C 98.212,260.761 97.212,261.261 96.5,262.5C 96.5,254.833 96.5,247.167 96.5,239.5 Z"/></g>
<g><path style="opacity:1" fill="#7fce8a" d="M 274.5,241.5 C 275.833,241.5 277.167,241.5 278.5,241.5C 278.664,244.187 278.497,246.854 278,249.5C 276.917,246.733 275.75,244.067 274.5,241.5 Z"/></g>
<g><path style="opacity:1" fill="#98d8a1" d="M 207.5,241.5 C 211.167,241.5 214.833,241.5 218.5,241.5C 218.5,254.167 218.5,266.833 218.5,279.5C 217.505,267.345 217.171,255.011 217.5,242.5C 213.958,242.813 210.625,242.479 207.5,241.5 Z"/></g>
<g><path style="opacity:1" fill="#98d7a1" d="M 306.5,241.5 C 303.375,242.479 300.042,242.813 296.5,242.5C 296.829,255.011 296.495,267.345 295.5,279.5C 295.5,266.833 295.5,254.167 295.5,241.5C 299.167,241.5 302.833,241.5 306.5,241.5 Z"/></g>
<g><path style="opacity:0.979" fill="#71c878" d="M 414.5,267.5 C 414.5,279.833 414.5,292.167 414.5,304.5C 413.751,303.469 413.085,302.302 412.5,301C 397.445,292.476 382.445,283.976 367.5,275.5C 367.5,265.167 367.5,254.833 367.5,244.5C 368.151,243.909 368.818,243.243 369.5,242.5C 384.306,251.335 399.306,259.669 414.5,267.5 Z"/></g>
<g><path style="opacity:0.997" fill="#add770" d="M 143.5,286.5 C 143.5,292.833 143.5,299.167 143.5,305.5C 127.833,305.5 112.167,305.5 96.5,305.5C 96.5,291.167 96.5,276.833 96.5,262.5C 97.212,261.261 98.212,260.761 99.5,261C 114.054,269.727 128.721,278.227 143.5,286.5 Z"/></g>
<g><path style="opacity:0.989" fill="#7aca77" d="M 367.5,275.5 C 382.445,283.976 397.445,292.476 412.5,301C 413.085,302.302 413.751,303.469 414.5,304.5C 399.009,305.496 383.342,305.83 367.5,305.5C 367.5,295.5 367.5,285.5 367.5,275.5 Z"/></g>
<g><path style="opacity:0.941" fill="#a2d471" d="M 186.5,280.5 C 195.125,290.286 205.125,298.452 216.5,305C 206.506,305.5 196.506,305.666 186.5,305.5C 186.5,297.167 186.5,288.833 186.5,280.5 Z"/></g>
<g><path style="opacity:0.978" fill="#89ce74" d="M 323.5,280.5 C 324.493,288.65 324.826,296.983 324.5,305.5C 314.494,305.666 304.494,305.5 294.5,305C 305.874,298.787 315.541,290.621 323.5,280.5 Z"/></g>
<g><path style="opacity:0.937" fill="#a1d372" d="M 203.5,320.5 C 227.833,320.5 252.167,320.5 276.5,320.5C 272.353,321.325 268.019,321.825 263.5,322C 272.833,327.333 282.167,332.667 291.5,338C 289.942,338.21 288.609,338.71 287.5,339.5C 265.167,339.5 242.833,339.5 220.5,339.5C 224.312,338.676 228.312,338.176 232.5,338C 222.662,332.303 212.996,326.47 203.5,320.5 Z"/></g>
<g><path style="opacity:0.861" fill="#7ecb76" d="M 383.5,320.5 C 402.17,320.333 420.836,320.5 439.5,321C 440.416,321.374 441.25,321.874 442,322.5C 442.499,327.823 442.666,333.156 442.5,338.5C 432.828,338.666 423.161,338.5 413.5,338C 403.273,332.392 393.273,326.559 383.5,320.5 Z"/></g>
<g><path style="opacity:1" fill="#c0dc6d" d="M 130.5,320.5 C 126.018,321.326 121.351,321.826 116.5,322C 124.833,327 133.167,332 141.5,337C 149.575,338.103 157.575,338.937 165.5,339.5C 133.167,339.5 100.833,339.5 68.5,339.5C 68.3339,333.824 68.5006,328.157 69,322.5C 69.7504,321.874 70.5838,321.374 71.5,321C 91.1638,320.5 110.831,320.333 130.5,320.5 Z"/></g>
<g><path style="opacity:1" fill="#b1d86f" d="M 130.5,320.5 C 154.833,320.5 179.167,320.5 203.5,320.5C 212.996,326.47 222.662,332.303 232.5,338C 228.312,338.176 224.312,338.676 220.5,339.5C 202.167,339.5 183.833,339.5 165.5,339.5C 157.575,338.937 149.575,338.103 141.5,337C 133.167,332 124.833,327 116.5,322C 121.351,321.826 126.018,321.326 130.5,320.5 Z"/></g>
<g><path style="opacity:1" fill="#94d173" d="M 276.5,320.5 C 287.833,320.5 299.167,320.5 310.5,320.5C 315.651,321.327 320.984,321.827 326.5,322C 335.167,327 343.833,332 352.5,337C 355.579,337.973 358.579,338.806 361.5,339.5C 336.833,339.5 312.167,339.5 287.5,339.5C 288.609,338.71 289.942,338.21 291.5,338C 282.167,332.667 272.833,327.333 263.5,322C 268.019,321.825 272.353,321.325 276.5,320.5 Z"/></g>
<g><path style="opacity:1" fill="#88ce75" d="M 310.5,320.5 C 334.833,320.5 359.167,320.5 383.5,320.5C 393.273,326.559 403.273,332.392 413.5,338C 423.161,338.5 432.828,338.666 442.5,338.5C 415.672,339.498 388.672,339.831 361.5,339.5C 358.579,338.806 355.579,337.973 352.5,337C 343.833,332 335.167,327 326.5,322C 320.984,321.827 315.651,321.327 310.5,320.5 Z"/></g>
<g><path style="opacity:0.995" fill="#d4e16a" d="M 76.5,354.5 C 91.6657,363.248 106.666,372.248 121.5,381.5C 96.1645,381.667 70.8311,381.5 45.5,381C 45,380.5 44.5,380 44,379.5C 43.1984,371.451 43.3651,363.451 44.5,355.5C 55.1459,354.501 65.8126,354.168 76.5,354.5 Z"/></g>
<g><path style="opacity:0.99" fill="#cbde6c" d="M 76.5,354.5 C 87.8333,354.5 99.1667,354.5 110.5,354.5C 125.666,363.248 140.666,372.248 155.5,381.5C 144.167,381.5 132.833,381.5 121.5,381.5C 106.666,372.248 91.6657,363.248 76.5,354.5 Z"/></g>
<g><path style="opacity:0.99" fill="#c4dc6d" d="M 110.5,354.5 C 120.5,354.5 130.5,354.5 140.5,354.5C 155.334,363.752 170.334,372.752 185.5,381.5C 175.5,381.5 165.5,381.5 155.5,381.5C 140.666,372.248 125.666,363.248 110.5,354.5 Z"/></g>
<g><path style="opacity:0.989" fill="#bedb6e" d="M 140.5,354.5 C 151.833,354.5 163.167,354.5 174.5,354.5C 188.972,364.242 203.972,373.242 219.5,381.5C 208.167,381.5 196.833,381.5 185.5,381.5C 170.334,372.752 155.334,363.752 140.5,354.5 Z"/></g>
<g><path style="opacity:0.996" fill="#b3d86f" d="M 174.5,354.5 C 193.833,354.5 213.167,354.5 232.5,354.5C 247.666,363.248 262.666,372.248 277.5,381.5C 258.167,381.5 238.833,381.5 219.5,381.5C 203.972,373.242 188.972,364.242 174.5,354.5 Z"/></g>
<g><path style="opacity:0.989" fill="#a7d571" d="M 232.5,354.5 C 252.167,354.5 271.833,354.5 291.5,354.5C 305.103,362.641 318.77,370.807 332.5,379C 335.579,379.973 338.579,380.806 341.5,381.5C 320.167,381.5 298.833,381.5 277.5,381.5C 262.666,372.248 247.666,363.248 232.5,354.5 Z"/></g>
<g><path style="opacity:0.995" fill="#9fd372" d="M 291.5,354.5 C 301.167,354.5 310.833,354.5 320.5,354.5C 335.666,363.248 350.666,372.248 365.5,381.5C 357.5,381.5 349.5,381.5 341.5,381.5C 338.579,380.806 335.579,379.973 332.5,379C 318.77,370.807 305.103,362.641 291.5,354.5 Z"/></g>
<g><path style="opacity:0.99" fill="#99d273" d="M 320.5,354.5 C 331.833,354.5 343.167,354.5 354.5,354.5C 369.666,363.248 384.666,372.248 399.5,381.5C 388.167,381.5 376.833,381.5 365.5,381.5C 350.666,372.248 335.666,363.248 320.5,354.5 Z"/></g>
<g><path style="opacity:0.99" fill="#90d074" d="M 354.5,354.5 C 372.5,354.5 390.5,354.5 408.5,354.5C 423.334,363.752 438.334,372.752 453.5,381.5C 435.5,381.5 417.5,381.5 399.5,381.5C 384.666,372.248 369.666,363.248 354.5,354.5 Z"/></g>
<g><path style="opacity:0.99" fill="#86cd75" d="M 408.5,354.5 C 427.845,354.167 447.178,354.5 466.5,355.5C 467.635,363.451 467.802,371.451 467,379.5C 466.5,380 466,380.5 465.5,381C 461.514,381.499 457.514,381.666 453.5,381.5C 438.334,372.752 423.334,363.752 408.5,354.5 Z"/></g>
<g><path style="opacity:0.942" fill="#c6dd6c" d="M 144.5,396.5 C 168.833,396.5 193.167,396.5 217.5,396.5C 216.737,397.268 215.737,397.768 214.5,398C 222.336,402.363 230.003,406.863 237.5,411.5C 216.167,411.5 194.833,411.5 173.5,411.5C 166.398,406.774 159.064,402.274 151.5,398C 148.964,397.814 146.631,397.314 144.5,396.5 Z"/></g>
<g><path style="opacity:0.984" fill="#bada6e" d="M 217.5,396.5 C 233.833,396.5 250.167,396.5 266.5,396.5C 276.773,400.053 286.44,405.053 295.5,411.5C 276.167,411.5 256.833,411.5 237.5,411.5C 230.003,406.863 222.336,402.363 214.5,398C 215.737,397.768 216.737,397.268 217.5,396.5 Z"/></g>
<g><path style="opacity:0.91" fill="#add770" d="M 266.5,396.5 C 290.833,396.5 315.167,396.5 339.5,396.5C 338.737,397.268 337.737,397.768 336.5,398C 344.23,402.526 351.896,407.026 359.5,411.5C 338.167,411.5 316.833,411.5 295.5,411.5C 286.44,405.053 276.773,400.053 266.5,396.5 Z"/></g>
<g><path style="opacity:0.938" fill="#a1d471" d="M 339.5,396.5 C 362.167,396.5 384.833,396.5 407.5,396.5C 407.5,401.5 407.5,406.5 407.5,411.5C 391.5,411.5 375.5,411.5 359.5,411.5C 351.896,407.026 344.23,402.526 336.5,398C 337.737,397.768 338.737,397.268 339.5,396.5 Z"/></g>
<g><path style="opacity:0.981" fill="#d4e16a" d="M 144.5,396.5 C 146.631,397.314 148.964,397.814 151.5,398C 159.064,402.274 166.398,406.774 173.5,411.5C 150.167,411.5 126.833,411.5 103.5,411.5C 103.5,406.5 103.5,401.5 103.5,396.5C 117.167,396.5 130.833,396.5 144.5,396.5 Z"/></g>
<g><path style="opacity:0.99" fill="#e3e468" d="M 123.5,426.5 C 121.031,427.317 118.365,427.817 115.5,428C 158.394,452.608 201.06,477.441 243.5,502.5C 232.167,502.5 220.833,502.5 209.5,502.5C 174.812,482.067 139.978,461.734 105,441.5C 104.722,442.416 104.222,443.082 103.5,443.5C 103.5,437.833 103.5,432.167 103.5,426.5C 110.167,426.5 116.833,426.5 123.5,426.5 Z"/></g>
<g><path style="opacity:0.991" fill="#dce269" d="M 123.5,426.5 C 139.833,426.5 156.167,426.5 172.5,426.5C 168.018,427.326 163.351,427.826 158.5,428C 180.861,441.178 203.194,454.345 225.5,467.5C 229.153,476.974 236.153,480.641 246.5,478.5C 259.833,486.5 273.167,494.5 286.5,502.5C 272.167,502.5 257.833,502.5 243.5,502.5C 201.06,477.441 158.394,452.608 115.5,428C 118.365,427.817 121.031,427.317 123.5,426.5 Z"/></g>
<g><path style="opacity:0.963" fill="#cade6c" d="M 196.5,426.5 C 212.833,426.5 229.167,426.5 245.5,426.5C 243.031,427.317 240.365,427.817 237.5,428C 251.372,435.55 264.372,443.383 276.5,451.5C 263.833,451.5 251.167,451.5 238.5,451.5C 239.263,450.732 240.263,450.232 241.5,450C 228.833,442.667 216.167,435.333 203.5,428C 200.964,427.814 198.631,427.314 196.5,426.5 Z"/></g>
<g><path style="opacity:0.99" fill="#c4dc6d" d="M 245.5,426.5 C 253.5,426.5 261.5,426.5 269.5,426.5C 268.737,427.268 267.737,427.768 266.5,428C 307.896,452.363 349.562,476.196 391.5,499.5C 389.852,500.927 387.852,501.76 385.5,502C 378.842,502.5 372.175,502.666 365.5,502.5C 338.563,486.693 311.563,470.86 284.5,455C 283.563,454.308 282.897,454.475 282.5,455.5C 280.463,454.154 278.463,452.82 276.5,451.5C 264.372,443.383 251.372,435.55 237.5,428C 240.365,427.817 243.031,427.317 245.5,426.5 Z"/></g>
<g><path style="opacity:0.987" fill="#bedb6e" d="M 269.5,426.5 C 277.833,426.5 286.167,426.5 294.5,426.5C 330.5,447.833 366.5,469.167 402.5,490.5C 399.71,494.628 396.043,497.628 391.5,499.5C 349.562,476.196 307.896,452.363 266.5,428C 267.737,427.768 268.737,427.268 269.5,426.5 Z"/></g>
<g><path style="opacity:0.996" fill="#b8da6e" d="M 294.5,426.5 C 302.5,426.5 310.5,426.5 318.5,426.5C 320.631,427.314 322.964,427.814 325.5,428C 351.242,443.399 377.242,458.399 403.5,473C 405.286,474.196 406.619,475.696 407.5,477.5C 407.192,482.432 405.525,486.765 402.5,490.5C 366.5,469.167 330.5,447.833 294.5,426.5 Z"/></g>
<g><path style="opacity:0.966" fill="#b0d76f" d="M 318.5,426.5 C 348.167,426.5 377.833,426.5 407.5,426.5C 407.5,443.5 407.5,460.5 407.5,477.5C 406.619,475.696 405.286,474.196 403.5,473C 377.242,458.399 351.242,443.399 325.5,428C 322.964,427.814 320.631,427.314 318.5,426.5 Z"/></g>
<g><path style="opacity:0.997" fill="#d4e06b" d="M 172.5,426.5 C 180.5,426.5 188.5,426.5 196.5,426.5C 198.631,427.314 200.964,427.814 203.5,428C 216.167,435.333 228.833,442.667 241.5,450C 240.263,450.232 239.263,450.732 238.5,451.5C 229.069,452.604 224.736,457.938 225.5,467.5C 203.194,454.345 180.861,441.178 158.5,428C 163.351,427.826 168.018,427.326 172.5,426.5 Z"/></g>
<g><path style="opacity:0.994" fill="#eae668" d="M 209.5,502.5 C 199.833,502.5 190.167,502.5 180.5,502.5C 155.33,487.078 129.663,472.411 103.5,458.5C 103.5,453.5 103.5,448.5 103.5,443.5C 104.222,443.082 104.722,442.416 105,441.5C 139.978,461.734 174.812,482.067 209.5,502.5 Z"/></g>
<g><path style="opacity:0.994" fill="#cade6c" d="M 365.5,502.5 C 354.167,502.5 342.833,502.5 331.5,502.5C 315.367,492.596 299.034,482.929 282.5,473.5C 286.44,467.567 286.44,461.567 282.5,455.5C 282.897,454.475 283.563,454.308 284.5,455C 311.563,470.86 338.563,486.693 365.5,502.5 Z"/></g>
<g><path style="opacity:0.999" fill="#f1e866" d="M 103.5,458.5 C 129.663,472.411 155.33,487.078 180.5,502.5C 162.164,502.667 143.83,502.5 125.5,502C 115.923,499.426 109.09,493.593 105,484.5C 103.624,475.902 103.124,467.235 103.5,458.5 Z"/></g>
<g><path style="opacity:0.967" fill="#d3e06b" d="M 282.5,473.5 C 299.034,482.929 315.367,492.596 331.5,502.5C 316.5,502.5 301.5,502.5 286.5,502.5C 273.167,494.5 259.833,486.5 246.5,478.5C 256.172,478.666 265.839,478.5 275.5,478C 278.257,477.062 280.59,475.562 282.5,473.5 Z"/></g>
</svg>
